<?xml version="1.0" encoding="UTF-8" standalone="no"?>
<svg
   xmlns:dc="http://purl.org/dc/elements/1.1/"
   xmlns:cc="http://creativecommons.org/ns#"
   xmlns:rdf="http://www.w3.org/1999/02/22-rdf-syntax-ns#"
   xmlns:svg="http://www.w3.org/2000/svg"
   xmlns="http://www.w3.org/2000/svg"
   xmlns:sodipodi="http://sodipodi.sourceforge.net/DTD/sodipodi-0.dtd"
   xmlns:inkscape="http://www.inkscape.org/namespaces/inkscape"
   width="50"
   height="27.233715"
   viewBox="0 0 50 27.233715"
   version="1.1"
   preserveAspectRatio="xMidYMid"
   id="svg4505"
   sodipodi:docname="router.svg"
   inkscape:version="0.92.1 r15371">
  <metadata
     id="metadata4511">
    <rdf:RDF>
      <cc:Work
         rdf:about="">
        <dc:format>image/svg+xml</dc:format>
        <dc:type
           rdf:resource="http://purl.org/dc/dcmitype/StillImage" />
        <dc:title></dc:title>
      </cc:Work>
    </rdf:RDF>
  </metadata>
  <defs
     id="defs4509" />
  <sodipodi:namedview
     pagecolor="#ffffff"
     bordercolor="#666666"
     borderopacity="1"
     objecttolerance="10"
     gridtolerance="10"
     guidetolerance="10"
     inkscape:pageopacity="0"
     inkscape:pageshadow="2"
     inkscape:window-width="1359"
     inkscape:window-height="671"
     id="namedview4507"
     showgrid="false"
     inkscape:zoom="2.265625"
     inkscape:cx="116.52414"
     inkscape:cy="-39.58407"
     inkscape:window-x="0"
     inkscape:window-y="0"
     inkscape:window-maximized="0"
     inkscape:current-layer="svg4505" />
  <g
     id="g5066">
    <path
       d="m 15.247253,18.083512 c 2.503488,0 4.532968,-2.029479 4.532968,-4.532967 0,-2.503489 -2.02948,-4.5329673 -4.532968,-4.5329673 -2.503489,0 -4.532967,2.0294783 -4.532967,4.5329673 0,2.503488 2.029478,4.532967 4.532967,4.532967 z M 4.532967,27.149445 c 2.5034887,0 4.5329672,-2.029478 4.5329672,-4.532966 0,-2.503489 -2.0294785,-4.532967 -4.5329672,-4.532967 C 2.0294785,18.083512 0,20.11299 0,22.616479 c 0,2.503488 2.0294785,4.532966 4.532967,4.532966 z m 40.934066,0 C 47.970521,27.149445 50,25.119967 50,22.616479 c 0,-2.503489 -2.029479,-4.532967 -4.532967,-4.532967 -2.503488,0 -4.532967,2.029478 -4.532967,4.532967 0,2.503488 2.029479,4.532966 4.532967,4.532966 z"
       id="path4499"
       inkscape:connector-curvature="0"
       style="fill:#ffffff;fill-opacity:1;stroke-width:0.1953125" />
    <path
       d="M 30.579191,13.741564 C 30.434264,12.227112 30.360465,10.966606 29.200291,10.080697 27.730984,8.9587305 26.066635,9.6867234 24.016496,8.9467377 22.002018,8.4594029 20.507812,6.670815 20.507812,4.5389525 20.507812,2.0321582 22.573807,0 25.122338,0 c 1.887551,0 3.510404,1.1147415 4.225234,2.7114352 1.094032,2.0780425 0.382992,4.1928699 1.757553,5.2581209 1.627588,1.2613402 3.821861,0.3376539 6.270287,1.5327371 0.786719,0.3615142 1.452631,0.9349058 1.921865,1.6455428 0.469233,0.710638 0.741785,1.558522 0.741785,2.469021 0,2.131863 -1.494205,3.920451 -3.508683,4.407786 -2.050139,0.739986 -3.714488,0.01199 -5.183795,1.133959 -1.652242,1.261654 -0.767699,3.372382 -2.114289,5.602033 -0.764295,1.468187 -2.317818,2.47308 -4.109957,2.47308 -2.548531,0 -4.614526,-2.032158 -4.614526,-4.538953 0,-1.820998 1.090213,-3.391535 2.663651,-4.114564 2.448426,-1.195083 4.642699,-0.271397 6.270287,-1.532737 0.938936,-0.727652 1.137441,-1.850144 1.137441,-3.305897 z"
       id="path4501"
       inkscape:connector-curvature="0"
       style="fill:#ca4442;stroke-width:0.1953125;fill-opacity:1" />
  </g>
</svg>
